<svg xmlns="http://www.w3.org/2000/svg" version="1.1" xmlns:xlink="http://www.w3.org/1999/xlink" xmlns:svgjs="http://svgjs.com/svgjs" width="1440" height="560" preserveAspectRatio="none" viewBox="0 0 1440 560"><g mask="url(&quot;#SvgjsMask1001&quot;)" fill="none"><rect width="1440" height="560" x="0" y="0" fill="rgba(255, 252, 232, 1)"></rect><path d="M0,357.442C69.624,351.036,147.879,357.968,200.37,311.781C251.75,266.572,232.805,181.164,267.431,122.132C308.191,52.641,428.784,19.732,418.543,-60.177C408.365,-139.594,293.439,-152.26,226.612,-196.361C179.099,-227.716,136.98,-264.504,82.739,-281.783C27.517,-299.375,-29.53,-303.824,-86.991,-296.262C-152.521,-287.638,-228.675,-285.599,-271.406,-235.175C-314.115,-184.777,-291.118,-108.592,-301.336,-43.326C-311.719,22.998,-344.627,85.675,-331.957,151.6C-317.446,227.104,-290.899,310.454,-225.556,350.972C-160.311,391.43,-76.448,364.476,0,357.442" fill="#ffef87"></path><path d="M1440 1062.28C1541.231 1087.036 1655.622 1088.175 1745.064 1034.689 1835.277 980.741 1872.396 873.024 1916.2359999999999 777.49 1960.152 681.79 2018.538 583.128 1999.8339999999998 479.508 1981.296 376.80899999999997 1898.429 298.917 1817.874 232.57100000000003 1746.327 173.64499999999998 1659.741 137.47500000000002 1568.0529999999999 123.89100000000002 1484.498 111.512 1405.425 144.15499999999997 1322.3 159.151 1227.539 176.24599999999998 1119.004 155.962 1045.497 218.161 969.8779999999999 282.147 934.2850000000001 388.25800000000004 934.4739999999999 487.31600000000003 934.653 581.264 993.817 661.917 1046.492 739.7090000000001 1092.001 806.918 1155.031 854.289 1217.8029999999999 905.745 1289.318 964.3679999999999 1350.175 1040.313 1440 1062.28" fill="#ffffff"></path></g><defs><mask id="SvgjsMask1001"><rect width="1440" height="560" fill="#ffffff"></rect></mask></defs></svg>