<svg xmlns="http://www.w3.org/2000/svg" version="1.1" xmlns:xlink="http://www.w3.org/1999/xlink" xmlns:svgjs="http://svgjs.com/svgjs" width="1440" height="560" preserveAspectRatio="none" viewBox="0 0 1440 560"><g mask="url(&quot;#SvgjsMask1004&quot;)" fill="none"><rect width="1440" height="560" x="0" y="0" fill="rgba(255, 252, 232, 1)"></rect><path d="M0 0L307.53 0L0 211.97z" fill="rgba(255, 255, 255, .1)"></path><path d="M0 211.97L307.53 0L464.27 0L0 224.9z" fill="rgba(255, 255, 255, .075)"></path><path d="M0 224.9L464.27 0L974.28 0L0 240.22z" fill="rgba(255, 255, 255, .05)"></path><path d="M0 240.22L974.28 0L1001.0799999999999 0L0 262.12z" fill="rgba(255, 255, 255, .025)"></path><path d="M1440 560L1229.3899999999999 560L1440 547.59z" fill="rgba(0, 0, 0, .1)"></path><path d="M1440 547.59L1229.3899999999999 560L990.3099999999998 560L1440 355.77000000000004z" fill="rgba(0, 0, 0, .075)"></path><path d="M1440 355.77L990.31 560L846.93 560L1440 316.4z" fill="rgba(0, 0, 0, .05)"></path><path d="M1440 316.4L846.93 560L645.68 560L1440 266.08z" fill="rgba(0, 0, 0, .025)"></path></g><defs><mask id="SvgjsMask1004"><rect width="1440" height="560" fill="#ffffff"></rect></mask></defs></svg>