<svg xmlns="http://www.w3.org/2000/svg" version="1.1" xmlns:xlink="http://www.w3.org/1999/xlink" xmlns:svgjs="http://svgjs.com/svgjs" width="1440" height="250" preserveAspectRatio="none" viewBox="0 0 1440 250"><g mask="url(&quot;#SvgjsMask1033&quot;)" fill="none"><rect width="1440" height="250" x="0" y="0" fill="rgba(62, 54, 63, 1)"></rect><path d="M41 250L291 0L592.5 0L342.5 250z" fill="url(#SvgjsLinearGradient1034)"></path><path d="M251.60000000000002 250L501.6 0L548.1 0L298.1 250z" fill="url(#SvgjsLinearGradient1034)"></path><path d="M510.20000000000005 250L760.2 0L965.7 0L715.7 250z" fill="url(#SvgjsLinearGradient1034)"></path><path d="M738.8000000000001 250L988.8000000000001 0L1260.3000000000002 0L1010.3000000000001 250z" fill="url(#SvgjsLinearGradient1034)"></path><path d="M1431 250L1181 0L954.5 0L1204.5 250z" fill="url(#SvgjsLinearGradient1035)"></path><path d="M1195.4 250L945.4000000000001 0L663.4000000000001 0L913.4000000000001 250z" fill="url(#SvgjsLinearGradient1035)"></path><path d="M962.8 250L712.8 0L565.8 0L815.8 250z" fill="url(#SvgjsLinearGradient1035)"></path><path d="M714.1999999999999 250L464.19999999999993 0L110.19999999999993 0L360.19999999999993 250z" fill="url(#SvgjsLinearGradient1035)"></path><path d="M1298.7823120582982 250L1440 108.7823120582982L1440 250z" fill="url(#SvgjsLinearGradient1034)"></path><path d="M0 250L141.2176879417018 250L 0 108.7823120582982z" fill="url(#SvgjsLinearGradient1035)"></path></g><defs><mask id="SvgjsMask1033"><rect width="1440" height="250" fill="#ffffff"></rect></mask><linearGradient x1="0%" y1="100%" x2="100%" y2="0%" id="SvgjsLinearGradient1034"><stop stop-color="rgba(105, 122, 33, 0.36)" offset="0"></stop><stop stop-opacity="0" stop-color="rgba(105, 122, 33, 0.36)" offset="0.66"></stop></linearGradient><linearGradient x1="100%" y1="100%" x2="0%" y2="0%" id="SvgjsLinearGradient1035"><stop stop-color="rgba(105, 122, 33, 0.36)" offset="0"></stop><stop stop-opacity="0" stop-color="rgba(105, 122, 33, 0.36)" offset="0.66"></stop></linearGradient></defs></svg>