<svg xmlns="http://www.w3.org/2000/svg" version="1.1" xmlns:xlink="http://www.w3.org/1999/xlink" xmlns:svgjs="http://svgjs.com/svgjs" width="1440" height="560" preserveAspectRatio="none" viewBox="0 0 1440 560"><g mask="url(&quot;#SvgjsMask1005&quot;)" fill="none"><rect width="1440" height="560" x="0" y="0" fill="rgba(62, 54, 63, 1)"></rect><path d="M29.86 -40.11L94.81 -2.61L94.81 72.39L29.86 109.89L-35.09 72.39L-35.09 -2.61zM159.77 409.89L224.72 447.39L224.72 522.39L159.77 559.89L94.81 522.39L94.81 447.39zM354.63 522.39L419.58 559.89L419.58 634.89L354.63 672.39L289.68 634.89L289.68 559.89zM484.54 297.39L549.49 334.89L549.49 409.89L484.54 447.39L419.58 409.89L419.58 334.89zM484.54 522.39L549.49 559.89L549.49 634.89L484.54 672.39L419.58 634.89L419.58 559.89zM549.49 -40.11L614.44 -2.61L614.44 72.39L549.49 109.89L484.54 72.39L484.54 -2.61zM744.35 297.39L809.31 334.89L809.31 409.89L744.35 447.39L679.4 409.89L679.4 334.89zM744.35 522.39L809.31 559.89L809.31 634.89L744.35 672.39L679.4 634.89L679.4 559.89zM874.26 72.39L939.21 109.89L939.21 184.89L874.26 222.39L809.3 184.89L809.3 109.89zM809.3 184.89L874.26 222.39L874.26 297.39L809.3 334.89L744.35 297.39L744.35 222.39zM809.3 409.89L874.26 447.39L874.26 522.39L809.3 559.89L744.35 522.39L744.35 447.39zM1134.07 297.39L1199.03 334.89L1199.03 409.89L1134.07 447.39L1069.12 409.89L1069.12 334.89zM1263.98 522.39L1328.93 559.89L1328.93 634.89L1263.98 672.39L1199.03 634.89L1199.03 559.89zM1393.89 297.39L1458.84 334.89L1458.84 409.89L1393.89 447.39L1328.93 409.89L1328.93 334.89zM1458.84 409.89L1523.8 447.39L1523.8 522.39L1458.84 559.89L1393.89 522.39L1393.89 447.39zM1523.8 522.39L1588.75 559.89L1588.75 634.89L1523.8 672.39L1458.84 634.89L1458.84 559.89z" stroke="rgba(105, 122, 33, 1)" stroke-width="2"></path><path d="M22.36 -40.11 a7.5 7.5 0 1 0 15 0 a7.5 7.5 0 1 0 -15 0zM87.31 -2.61 a7.5 7.5 0 1 0 15 0 a7.5 7.5 0 1 0 -15 0zM87.31 72.39 a7.5 7.5 0 1 0 15 0 a7.5 7.5 0 1 0 -15 0zM22.36 109.89 a7.5 7.5 0 1 0 15 0 a7.5 7.5 0 1 0 -15 0zM-42.59 72.39 a7.5 7.5 0 1 0 15 0 a7.5 7.5 0 1 0 -15 0zM-42.59 -2.61 a7.5 7.5 0 1 0 15 0 a7.5 7.5 0 1 0 -15 0zM152.27 409.89 a7.5 7.5 0 1 0 15 0 a7.5 7.5 0 1 0 -15 0zM217.22 447.39 a7.5 7.5 0 1 0 15 0 a7.5 7.5 0 1 0 -15 0zM217.22 522.39 a7.5 7.5 0 1 0 15 0 a7.5 7.5 0 1 0 -15 0zM152.27 559.89 a7.5 7.5 0 1 0 15 0 a7.5 7.5 0 1 0 -15 0zM87.31 522.39 a7.5 7.5 0 1 0 15 0 a7.5 7.5 0 1 0 -15 0zM87.31 447.39 a7.5 7.5 0 1 0 15 0 a7.5 7.5 0 1 0 -15 0zM347.13 522.39 a7.5 7.5 0 1 0 15 0 a7.5 7.5 0 1 0 -15 0zM412.08 559.89 a7.5 7.5 0 1 0 15 0 a7.5 7.5 0 1 0 -15 0zM412.08 634.89 a7.5 7.5 0 1 0 15 0 a7.5 7.5 0 1 0 -15 0zM347.13 672.39 a7.5 7.5 0 1 0 15 0 a7.5 7.5 0 1 0 -15 0zM282.18 634.89 a7.5 7.5 0 1 0 15 0 a7.5 7.5 0 1 0 -15 0zM282.18 559.89 a7.5 7.5 0 1 0 15 0 a7.5 7.5 0 1 0 -15 0zM477.04 297.39 a7.5 7.5 0 1 0 15 0 a7.5 7.5 0 1 0 -15 0zM541.99 334.89 a7.5 7.5 0 1 0 15 0 a7.5 7.5 0 1 0 -15 0zM541.99 409.89 a7.5 7.5 0 1 0 15 0 a7.5 7.5 0 1 0 -15 0zM477.04 447.39 a7.5 7.5 0 1 0 15 0 a7.5 7.5 0 1 0 -15 0zM412.08 409.89 a7.5 7.5 0 1 0 15 0 a7.5 7.5 0 1 0 -15 0zM412.08 334.89 a7.5 7.5 0 1 0 15 0 a7.5 7.5 0 1 0 -15 0zM477.04 522.39 a7.5 7.5 0 1 0 15 0 a7.5 7.5 0 1 0 -15 0zM541.99 559.89 a7.5 7.5 0 1 0 15 0 a7.5 7.5 0 1 0 -15 0zM541.99 634.89 a7.5 7.5 0 1 0 15 0 a7.5 7.5 0 1 0 -15 0zM477.04 672.39 a7.5 7.5 0 1 0 15 0 a7.5 7.5 0 1 0 -15 0zM541.99 -40.11 a7.5 7.5 0 1 0 15 0 a7.5 7.5 0 1 0 -15 0zM606.94 -2.61 a7.5 7.5 0 1 0 15 0 a7.5 7.5 0 1 0 -15 0zM606.94 72.39 a7.5 7.5 0 1 0 15 0 a7.5 7.5 0 1 0 -15 0zM541.99 109.89 a7.5 7.5 0 1 0 15 0 a7.5 7.5 0 1 0 -15 0zM477.04 72.39 a7.5 7.5 0 1 0 15 0 a7.5 7.5 0 1 0 -15 0zM477.04 -2.61 a7.5 7.5 0 1 0 15 0 a7.5 7.5 0 1 0 -15 0zM736.85 297.39 a7.5 7.5 0 1 0 15 0 a7.5 7.5 0 1 0 -15 0zM801.81 334.89 a7.5 7.5 0 1 0 15 0 a7.5 7.5 0 1 0 -15 0zM801.81 409.89 a7.5 7.5 0 1 0 15 0 a7.5 7.5 0 1 0 -15 0zM736.85 447.39 a7.5 7.5 0 1 0 15 0 a7.5 7.5 0 1 0 -15 0zM671.9 409.89 a7.5 7.5 0 1 0 15 0 a7.5 7.5 0 1 0 -15 0zM671.9 334.89 a7.5 7.5 0 1 0 15 0 a7.5 7.5 0 1 0 -15 0zM736.85 522.39 a7.5 7.5 0 1 0 15 0 a7.5 7.5 0 1 0 -15 0zM801.81 559.89 a7.5 7.5 0 1 0 15 0 a7.5 7.5 0 1 0 -15 0zM801.81 634.89 a7.5 7.5 0 1 0 15 0 a7.5 7.5 0 1 0 -15 0zM736.85 672.39 a7.5 7.5 0 1 0 15 0 a7.5 7.5 0 1 0 -15 0zM671.9 634.89 a7.5 7.5 0 1 0 15 0 a7.5 7.5 0 1 0 -15 0zM671.9 559.89 a7.5 7.5 0 1 0 15 0 a7.5 7.5 0 1 0 -15 0zM866.76 72.39 a7.5 7.5 0 1 0 15 0 a7.5 7.5 0 1 0 -15 0zM931.71 109.89 a7.5 7.5 0 1 0 15 0 a7.5 7.5 0 1 0 -15 0zM931.71 184.89 a7.5 7.5 0 1 0 15 0 a7.5 7.5 0 1 0 -15 0zM866.76 222.39 a7.5 7.5 0 1 0 15 0 a7.5 7.5 0 1 0 -15 0zM801.8 184.89 a7.5 7.5 0 1 0 15 0 a7.5 7.5 0 1 0 -15 0zM801.8 109.89 a7.5 7.5 0 1 0 15 0 a7.5 7.5 0 1 0 -15 0zM866.76 297.39 a7.5 7.5 0 1 0 15 0 a7.5 7.5 0 1 0 -15 0zM801.8 334.89 a7.5 7.5 0 1 0 15 0 a7.5 7.5 0 1 0 -15 0zM736.85 222.39 a7.5 7.5 0 1 0 15 0 a7.5 7.5 0 1 0 -15 0zM801.8 409.89 a7.5 7.5 0 1 0 15 0 a7.5 7.5 0 1 0 -15 0zM866.76 447.39 a7.5 7.5 0 1 0 15 0 a7.5 7.5 0 1 0 -15 0zM866.76 522.39 a7.5 7.5 0 1 0 15 0 a7.5 7.5 0 1 0 -15 0zM801.8 559.89 a7.5 7.5 0 1 0 15 0 a7.5 7.5 0 1 0 -15 0zM1126.57 297.39 a7.5 7.5 0 1 0 15 0 a7.5 7.5 0 1 0 -15 0zM1191.53 334.89 a7.5 7.5 0 1 0 15 0 a7.5 7.5 0 1 0 -15 0zM1191.53 409.89 a7.5 7.5 0 1 0 15 0 a7.5 7.5 0 1 0 -15 0zM1126.57 447.39 a7.5 7.5 0 1 0 15 0 a7.5 7.5 0 1 0 -15 0zM1061.62 409.89 a7.5 7.5 0 1 0 15 0 a7.5 7.5 0 1 0 -15 0zM1061.62 334.89 a7.5 7.5 0 1 0 15 0 a7.5 7.5 0 1 0 -15 0zM1256.48 522.39 a7.5 7.5 0 1 0 15 0 a7.5 7.5 0 1 0 -15 0zM1321.43 559.89 a7.5 7.5 0 1 0 15 0 a7.5 7.5 0 1 0 -15 0zM1321.43 634.89 a7.5 7.5 0 1 0 15 0 a7.5 7.5 0 1 0 -15 0zM1256.48 672.39 a7.5 7.5 0 1 0 15 0 a7.5 7.5 0 1 0 -15 0zM1191.53 634.89 a7.5 7.5 0 1 0 15 0 a7.5 7.5 0 1 0 -15 0zM1191.53 559.89 a7.5 7.5 0 1 0 15 0 a7.5 7.5 0 1 0 -15 0zM1386.39 297.39 a7.5 7.5 0 1 0 15 0 a7.5 7.5 0 1 0 -15 0zM1451.34 334.89 a7.5 7.5 0 1 0 15 0 a7.5 7.5 0 1 0 -15 0zM1451.34 409.89 a7.5 7.5 0 1 0 15 0 a7.5 7.5 0 1 0 -15 0zM1386.39 447.39 a7.5 7.5 0 1 0 15 0 a7.5 7.5 0 1 0 -15 0zM1321.43 409.89 a7.5 7.5 0 1 0 15 0 a7.5 7.5 0 1 0 -15 0zM1321.43 334.89 a7.5 7.5 0 1 0 15 0 a7.5 7.5 0 1 0 -15 0zM1516.3 447.39 a7.5 7.5 0 1 0 15 0 a7.5 7.5 0 1 0 -15 0zM1516.3 522.39 a7.5 7.5 0 1 0 15 0 a7.5 7.5 0 1 0 -15 0zM1451.34 559.89 a7.5 7.5 0 1 0 15 0 a7.5 7.5 0 1 0 -15 0zM1386.39 522.39 a7.5 7.5 0 1 0 15 0 a7.5 7.5 0 1 0 -15 0zM1581.25 559.89 a7.5 7.5 0 1 0 15 0 a7.5 7.5 0 1 0 -15 0zM1581.25 634.89 a7.5 7.5 0 1 0 15 0 a7.5 7.5 0 1 0 -15 0zM1516.3 672.39 a7.5 7.5 0 1 0 15 0 a7.5 7.5 0 1 0 -15 0zM1451.34 634.89 a7.5 7.5 0 1 0 15 0 a7.5 7.5 0 1 0 -15 0z" fill="rgba(105, 122, 33, 1)"></path><path d="M57.89 208.56L101.2 233.56L101.2 283.56L57.89 308.56L14.59 283.56L14.59 233.56zM57.89 508.56L101.2 533.56L101.2 583.56L57.89 608.56L14.59 583.56L14.59 533.56zM144.5 208.56L187.8 233.56L187.8 283.56L144.5 308.56L101.2 283.56L101.2 233.56zM101.2 433.56L144.5 458.56L144.5 508.56L101.2 533.56L57.89 508.56L57.89 458.56zM231.1 58.56L274.4 83.56L274.4 133.56L231.1 158.56L187.8 133.56L187.8 83.56zM231.1 208.56L274.4 233.56L274.4 283.56L231.1 308.56L187.8 283.56L187.8 233.56zM274.4 133.56L317.71 158.56L317.71 208.56L274.4 233.56L231.1 208.56L231.1 158.56zM317.71 508.56L361.01 533.56L361.01 583.56L317.71 608.56L274.4 583.56L274.4 533.56zM361.01 283.56L404.31 308.56L404.31 358.56L361.01 383.56L317.71 358.56L317.71 308.56zM490.92 58.56L534.22 83.56L534.22 133.56L490.92 158.56L447.62 133.56L447.62 83.56zM534.22 -16.44L577.52 8.56L577.52 58.56L534.22 83.56L490.92 58.56L490.92 8.56zM577.52 58.56L620.83 83.56L620.83 133.56L577.52 158.56L534.22 133.56L534.22 83.56zM534.22 283.56L577.52 308.56L577.52 358.56L534.22 383.56L490.92 358.56L490.92 308.56zM664.13 358.56L707.43 383.56L707.43 433.56L664.13 458.56L620.83 433.56L620.83 383.56zM664.13 508.56L707.43 533.56L707.43 583.56L664.13 608.56L620.83 583.56L620.83 533.56zM707.43 -16.44L750.73 8.56L750.73 58.56L707.43 83.56L664.13 58.56L664.13 8.56zM750.73 58.56L794.04 83.56L794.04 133.56L750.73 158.56L707.43 133.56L707.43 83.56zM750.73 208.56L794.04 233.56L794.04 283.56L750.73 308.56L707.43 283.56L707.43 233.56zM707.43 433.56L750.73 458.56L750.73 508.56L707.43 533.56L664.13 508.56L664.13 458.56zM750.73 508.56L794.04 533.56L794.04 583.56L750.73 608.56L707.43 583.56L707.43 533.56zM794.04 133.56L837.34 158.56L837.34 208.56L794.04 233.56L750.73 208.56L750.73 158.56zM794.04 433.56L837.34 458.56L837.34 508.56L794.04 533.56L750.73 508.56L750.73 458.56zM880.64 -16.44L923.94 8.56L923.94 58.56L880.64 83.56L837.34 58.56L837.34 8.56zM880.64 283.56L923.94 308.56L923.94 358.56L880.64 383.56L837.34 358.56L837.34 308.56zM1010.55 358.56L1053.85 383.56L1053.85 433.56L1010.55 458.56L967.25 433.56L967.25 383.56zM1097.15 358.56L1140.45 383.56L1140.45 433.56L1097.15 458.56L1053.85 433.56L1053.85 383.56zM1097.15 508.56L1140.45 533.56L1140.45 583.56L1097.15 608.56L1053.85 583.56L1053.85 533.56zM1183.76 508.56L1227.06 533.56L1227.06 583.56L1183.76 608.56L1140.45 583.56L1140.45 533.56zM1227.06 -16.44L1270.36 8.56L1270.36 58.56L1227.06 83.56L1183.76 58.56L1183.76 8.56zM1270.36 58.56L1313.66 83.56L1313.66 133.56L1270.36 158.56L1227.06 133.56L1227.06 83.56zM1270.36 358.56L1313.66 383.56L1313.66 433.56L1270.36 458.56L1227.06 433.56L1227.06 383.56zM1227.06 433.56L1270.36 458.56L1270.36 508.56L1227.06 533.56L1183.76 508.56L1183.76 458.56zM1270.36 508.56L1313.66 533.56L1313.66 583.56L1270.36 608.56L1227.06 583.56L1227.06 533.56zM1356.97 58.56L1400.27 83.56L1400.27 133.56L1356.97 158.56L1313.66 133.56L1313.66 83.56zM1356.97 208.56L1400.27 233.56L1400.27 283.56L1356.97 308.56L1313.66 283.56L1313.66 233.56zM1443.57 58.56L1486.88 83.56L1486.88 133.56L1443.57 158.56L1400.27 133.56L1400.27 83.56zM1443.57 208.56L1486.88 233.56L1486.88 283.56L1443.57 308.56L1400.27 283.56L1400.27 233.56zM1400.27 283.56L1443.57 308.56L1443.57 358.56L1400.27 383.56L1356.97 358.56L1356.97 308.56zM1443.57 358.56L1486.88 383.56L1486.88 433.56L1443.57 458.56L1400.27 433.56L1400.27 383.56zM1400.27 433.56L1443.57 458.56L1443.57 508.56L1400.27 533.56L1356.97 508.56L1356.97 458.56z" stroke="rgba(105, 122, 33, 0.31)" stroke-width="2"></path></g><defs><mask id="SvgjsMask1005"><rect width="1440" height="560" fill="#ffffff"></rect></mask></defs></svg>