<svg xmlns="http://www.w3.org/2000/svg" version="1.1" xmlns:xlink="http://www.w3.org/1999/xlink" xmlns:svgjs="http://svgjs.com/svgjs" width="1440" height="560" preserveAspectRatio="none" viewBox="0 0 1440 560"><g mask="url(&quot;#SvgjsMask1008&quot;)" fill="none"><rect width="1440" height="560" x="0" y="0" fill="rgba(255, 252, 232, 1)"></rect><path d="M1440 0L911.27 0L1440 212.7z" fill="rgba(255, 255, 255, .1)"></path><path d="M911.27 0L1440 212.7L1440 318.96999999999997L530.66 0z" fill="rgba(255, 255, 255, .075)"></path><path d="M530.66 0L1440 318.96999999999997L1440 378.40999999999997L222.89 0z" fill="rgba(255, 255, 255, .05)"></path><path d="M222.88999999999987 0L1440 378.40999999999997L1440 504.90999999999997L145.25999999999988 0z" fill="rgba(255, 255, 255, .025)"></path><path d="M0 560L315.93 560L0 287.48z" fill="rgba(0, 0, 0, .1)"></path><path d="M0 287.48L315.93 560L411.25 560L0 257.70000000000005z" fill="rgba(0, 0, 0, .075)"></path><path d="M0 257.70000000000005L411.25 560L1046.5900000000001 560L0 224.25000000000006z" fill="rgba(0, 0, 0, .05)"></path><path d="M0 224.25000000000006L1046.5900000000001 560L1274.6000000000001 560L0 107.98000000000006z" fill="rgba(0, 0, 0, .025)"></path></g><defs><mask id="SvgjsMask1008"><rect width="1440" height="560" fill="#ffffff"></rect></mask></defs></svg>